<svg width="132" height="6" viewBox="0 0 132 6" fill="none" xmlns="http://www.w3.org/2000/svg">
<path d="M8.17133e-05 2.68004C8.18395e-05 4.16027 1.20005 5.36024 2.68028 5.36024C4.16052 5.36024 5.36048 4.16027 5.36048 2.68004C5.36048 1.1998 4.16051 -0.000163799 2.68028 -0.000163666C1.20005 -0.000163534 8.15872e-05 1.1998 8.17133e-05 2.68004ZM126.64 2.68003C126.64 4.16026 127.839 5.36022 129.32 5.36022C130.8 5.36022 132 4.16026 132 2.68002C132 1.19979 130.8 -0.000175154 129.32 -0.000175021C127.839 -0.000174888 126.64 1.19979 126.64 2.68003ZM2.68028 2.68004L2.68028 3.18257L129.32 3.18256L129.32 2.68002L129.32 2.17749L2.68028 2.1775L2.68028 2.68004Z" fill="#D94A43"/>
</svg>
