<svg width="1120" height="215" viewBox="0 0 1120 215" fill="none" xmlns="http://www.w3.org/2000/svg">
<path d="M1114.66 2.66809C1114.66 4.14173 1115.86 5.33635 1117.33 5.33635C1118.81 5.33635 1120 4.14173 1120 2.66809C1120 1.19446 1118.81 -0.000162937 1117.33 -0.000162937C1115.86 -0.000162937 1114.66 1.19446 1114.66 2.66809ZM8.13492e-05 211.793C8.13492e-05 213.266 1.1947 214.461 2.66834 214.461C4.14197 214.461 5.33659 213.266 5.33659 211.793C5.33659 210.319 4.14197 209.124 2.66834 209.124C1.1947 209.124 8.13492e-05 210.319 8.13492e-05 211.793ZM1117.33 2.66809H1116.83V103.199H1117.33H1117.83V2.66809H1117.33ZM1107.33 113.205V112.705H12.6743V113.205V113.706H1107.33V113.205ZM2.66834 123.211H2.16804V211.793H2.66834H3.16863V123.211H2.66834ZM12.6743 113.205V112.705C6.87182 112.705 2.16804 117.409 2.16804 123.211H2.66834H3.16863C3.16863 117.961 7.42444 113.706 12.6743 113.706V113.205ZM1117.33 103.199H1116.83C1116.83 108.449 1112.58 112.705 1107.33 112.705V113.205V113.706C1113.13 113.706 1117.83 109.002 1117.83 103.199H1117.33Z" fill="#D94A43"/>
</svg>
