<svg width="197" height="252" viewBox="0 0 197 252" fill="none" xmlns="http://www.w3.org/2000/svg">
<path d="M8.15165e-05 249.326C8.15165e-05 247.85 1.19716 246.653 2.67383 246.653C4.15049 246.653 5.34757 247.85 5.34757 249.326C5.34757 250.803 4.15049 252 2.67383 252C1.19716 252 8.15165e-05 250.803 8.15165e-05 249.326ZM191.507 2.67357C191.507 1.19691 192.704 -0.000168292 194.181 -0.000168292C195.657 -0.000168292 196.854 1.19691 196.854 2.67357C196.854 4.15024 195.657 5.34731 194.181 5.34731C192.704 5.34731 191.507 4.15024 191.507 2.67357ZM2.67383 249.326V248.825H88.4007V249.326V249.828H2.67383V249.326ZM98.4273 239.3H97.9259V12.7001H98.4273H98.9286V239.3H98.4273ZM108.454 2.67357V2.17224H194.181V2.67357V3.17489H108.454V2.67357ZM98.4273 12.7001H97.9259C97.9259 6.88573 102.639 2.17224 108.454 2.17224V2.67357V3.17489C103.193 3.17489 98.9286 7.43949 98.9286 12.7001H98.4273ZM88.4007 249.326V248.825C93.6614 248.825 97.9259 244.561 97.9259 239.3H98.4273H98.9286C98.9286 245.114 94.2151 249.828 88.4007 249.828V249.326Z" fill="#D94A43"/>
</svg>
