<svg width="164" height="91" viewBox="0 0 164 91" fill="none" xmlns="http://www.w3.org/2000/svg">
<path d="M8.16325e-05 2.67738C8.16325e-05 4.15615 1.19886 5.35493 2.67763 5.35493C4.1564 5.35493 5.35518 4.15615 5.35518 2.67738C5.35518 1.19862 4.1564 -0.000163504 2.67763 -0.000163504C1.19886 -0.000163504 8.16325e-05 1.19862 8.16325e-05 2.67738ZM158.645 88.0242C158.645 89.503 159.844 90.7018 161.322 90.7018C162.801 90.7018 164 89.503 164 88.0242C164 86.5455 162.801 85.3467 161.322 85.3467C159.844 85.3467 158.645 86.5455 158.645 88.0242ZM2.67763 2.67738V3.17943H71.9592V2.67738V2.17534H2.67763V2.67738ZM82 12.7182H81.498V77.9834H82H82.502V12.7182H82ZM92.0408 88.0242V88.5263H161.322V88.0242V87.5222H92.0408V88.0242ZM82 77.9834H81.498C81.498 83.8061 86.2182 88.5263 92.0408 88.5263V88.0242V87.5222C86.7727 87.5222 82.502 83.2515 82.502 77.9834H82ZM71.9592 2.67738V3.17943C77.2273 3.17943 81.498 7.45008 81.498 12.7182H82H82.502C82.502 6.89554 77.7819 2.17534 71.9592 2.17534V2.67738Z" fill="#D94A43"/>
</svg>
