<svg width="165" height="213" viewBox="0 0 165 213" fill="none" xmlns="http://www.w3.org/2000/svg">
<path d="M8.15561e-05 2.67488C8.15561e-05 4.15227 1.19774 5.34992 2.67512 5.34992C4.15251 5.34992 5.35017 4.15227 5.35017 2.67488C5.35017 1.19749 4.15251 -0.000163351 2.67512 -0.000163351C1.19774 -0.000163351 8.15561e-05 1.19749 8.15561e-05 2.67488ZM159.5 210.325C159.5 211.802 160.697 213 162.175 213C163.652 213 164.85 211.802 164.85 210.325C164.85 208.848 163.652 207.65 162.175 207.65C160.697 207.65 159.5 208.848 159.5 210.325ZM2.67512 2.67488V3.17645H72.3934V2.67488V2.17331H2.67512V2.67488ZM82.4249 12.7063H81.9233V200.294H82.4249H82.9264V12.7063H82.4249ZM92.4563 210.325V210.827H162.175V210.325V209.824H92.4563V210.325ZM82.4249 200.294H81.9233C81.9233 206.111 86.6391 210.827 92.4563 210.827V210.325V209.824C87.1931 209.824 82.9264 205.557 82.9264 200.294H82.4249ZM72.3934 2.67488V3.17645C77.6566 3.17645 81.9233 7.44311 81.9233 12.7063H82.4249H82.9264C82.9264 6.88909 78.2106 2.17331 72.3934 2.17331V2.67488Z" fill="#D94A43"/>
</svg>
