<svg width="166" height="125" viewBox="0 0 166 125" fill="none" xmlns="http://www.w3.org/2000/svg">
<path d="M8.16285e-05 2.67725C8.16285e-05 4.15595 1.1988 5.35467 2.6775 5.35467C4.15619 5.35467 5.35492 4.15595 5.35492 2.67725C5.35492 1.19856 4.15619 -0.000163496 2.6775 -0.000163496C1.1988 -0.000163496 8.16285e-05 1.19856 8.16285e-05 2.67725ZM160.645 122.157C160.645 123.636 161.844 124.834 163.323 124.834C164.801 124.834 166 123.636 166 122.157C166 120.678 164.801 119.48 163.323 119.48C161.844 119.48 160.645 120.678 160.645 122.157ZM2.6775 2.67725V3.17927H72.9597V2.67725V2.17524H2.6775V2.67725ZM83 12.7176H82.498V112.117H83H83.502V12.7176H83ZM93.0403 122.157V122.659H163.323V122.157V121.655H93.0403V122.157ZM83 112.117H82.498C82.498 117.939 87.2179 122.659 93.0403 122.659V122.157V121.655C87.7725 121.655 83.502 117.385 83.502 112.117H83ZM72.9597 2.67725V3.17927C78.2275 3.17927 82.498 7.44971 82.498 12.7176H83H83.502C83.502 6.8952 78.7821 2.17524 72.9597 2.17524V2.67725Z" fill="#D94A43"/>
</svg>
